<?xml version="1.0" encoding="utf-8" standalone="no"?>
<!DOCTYPE svg PUBLIC "-//W3C//DTD SVG 1.1//EN"
  "http://www.w3.org/Graphics/SVG/1.1/DTD/svg11.dtd">
<!-- Created with matplotlib (http://matplotlib.org/) -->
<svg height="432pt" version="1.1" viewBox="0 0 576 432" width="576pt" xmlns="http://www.w3.org/2000/svg" xmlns:xlink="http://www.w3.org/1999/xlink">
 <defs>
  <style type="text/css">
*{stroke-linecap:butt;stroke-linejoin:round;}
  </style>
 </defs>
 <g id="figure_1">
  <g id="patch_1">
   <path d="M 0 432 
L 576 432 
L 576 0 
L 0 0 
z
" style="fill:#ffffff;"/>
  </g>
  <g id="axes_1">
   <g id="line2d_1">
    <path clip-path="url(#p8c8d7628e3)" d="M 55.384615 332.307692 
L 55.384615 99.692308 
" style="fill:none;stroke:#000000;stroke-linecap:round;stroke-width:1.75;"/>
   </g>
   <g id="line2d_2">
    <path clip-path="url(#p8c8d7628e3)" d="M 88.615385 332.307692 
L 88.615385 99.692308 
" style="fill:none;stroke:#000000;stroke-linecap:round;stroke-width:1.75;"/>
   </g>
   <g id="line2d_3">
    <path clip-path="url(#p8c8d7628e3)" d="M 121.846154 332.307692 
L 121.846154 99.692308 
" style="fill:none;stroke:#000000;stroke-linecap:round;stroke-width:1.75;"/>
   </g>
   <g id="line2d_4">
    <path clip-path="url(#p8c8d7628e3)" d="M 55.384615 332.307692 
L 121.846154 332.307692 
" style="fill:none;stroke:#000000;stroke-linecap:round;stroke-width:1.75;"/>
   </g>
   <g id="line2d_5">
    <path clip-path="url(#p8c8d7628e3)" d="M 55.384615 299.076923 
L 121.846154 299.076923 
" style="fill:none;stroke:#000000;stroke-linecap:round;stroke-width:1.75;"/>
   </g>
   <g id="line2d_6">
    <path clip-path="url(#p8c8d7628e3)" d="M 55.384615 265.846154 
L 121.846154 265.846154 
" style="fill:none;stroke:#000000;stroke-linecap:round;stroke-width:1.75;"/>
   </g>
   <g id="line2d_7">
    <path clip-path="url(#p8c8d7628e3)" d="M 55.384615 232.615385 
L 121.846154 232.615385 
" style="fill:none;stroke:#000000;stroke-linecap:round;stroke-width:1.75;"/>
   </g>
   <g id="line2d_8">
    <path clip-path="url(#p8c8d7628e3)" d="M 55.384615 199.384615 
L 121.846154 199.384615 
" style="fill:none;stroke:#000000;stroke-linecap:round;stroke-width:1.75;"/>
   </g>
   <g id="line2d_9">
    <path clip-path="url(#p8c8d7628e3)" d="M 55.384615 166.153846 
L 121.846154 166.153846 
" style="fill:none;stroke:#000000;stroke-linecap:round;stroke-width:1.75;"/>
   </g>
   <g id="line2d_10">
    <path clip-path="url(#p8c8d7628e3)" d="M 55.384615 132.923077 
L 121.846154 132.923077 
" style="fill:none;stroke:#000000;stroke-linecap:round;stroke-width:1.75;"/>
   </g>
   <g id="line2d_11">
    <path clip-path="url(#p8c8d7628e3)" d="M 55.384615 99.692308 
L 121.846154 99.692308 
" style="fill:none;stroke:#000000;stroke-linecap:round;stroke-width:1.75;"/>
   </g>
   <g id="line2d_12">
    <path clip-path="url(#p8c8d7628e3)" d="M 188.307692 132.923077 
L 188.307692 33.230769 
" style="fill:none;stroke:#000000;stroke-linecap:round;stroke-width:1.75;"/>
   </g>
   <g id="line2d_13">
    <path clip-path="url(#p8c8d7628e3)" d="M 221.538462 132.923077 
L 221.538462 33.230769 
" style="fill:none;stroke:#000000;stroke-linecap:round;stroke-width:1.75;"/>
   </g>
   <g id="line2d_14">
    <path clip-path="url(#p8c8d7628e3)" d="M 254.769231 132.923077 
L 254.769231 33.230769 
" style="fill:none;stroke:#000000;stroke-linecap:round;stroke-width:1.75;"/>
   </g>
   <g id="line2d_15">
    <path clip-path="url(#p8c8d7628e3)" d="M 188.307692 132.923077 
L 254.769231 132.923077 
" style="fill:none;stroke:#000000;stroke-linecap:round;stroke-width:1.75;"/>
   </g>
   <g id="line2d_16">
    <path clip-path="url(#p8c8d7628e3)" d="M 188.307692 99.692308 
L 254.769231 99.692308 
" style="fill:none;stroke:#000000;stroke-linecap:round;stroke-width:1.75;"/>
   </g>
   <g id="line2d_17">
    <path clip-path="url(#p8c8d7628e3)" d="M 188.307692 66.461538 
L 254.769231 66.461538 
" style="fill:none;stroke:#000000;stroke-linecap:round;stroke-width:1.75;"/>
   </g>
   <g id="line2d_18">
    <path clip-path="url(#p8c8d7628e3)" d="M 188.307692 33.230769 
L 254.769231 33.230769 
" style="fill:none;stroke:#000000;stroke-linecap:round;stroke-width:1.75;"/>
   </g>
   <g id="line2d_19">
    <path clip-path="url(#p8c8d7628e3)" d="M 321.230769 116.307692 
L 321.230769 49.846154 
" style="fill:none;stroke:#000000;stroke-linecap:round;stroke-width:1.75;"/>
   </g>
   <g id="line2d_20">
    <path clip-path="url(#p8c8d7628e3)" d="M 354.461538 116.307692 
L 354.461538 49.846154 
" style="fill:none;stroke:#000000;stroke-linecap:round;stroke-width:1.75;"/>
   </g>
   <g id="line2d_21">
    <path clip-path="url(#p8c8d7628e3)" d="M 387.692308 116.307692 
L 387.692308 49.846154 
" style="fill:none;stroke:#000000;stroke-linecap:round;stroke-width:1.75;"/>
   </g>
   <g id="line2d_22">
    <path clip-path="url(#p8c8d7628e3)" d="M 321.230769 116.307692 
L 387.692308 116.307692 
" style="fill:none;stroke:#000000;stroke-linecap:round;stroke-width:1.75;"/>
   </g>
   <g id="line2d_23">
    <path clip-path="url(#p8c8d7628e3)" d="M 321.230769 83.076923 
L 387.692308 83.076923 
" style="fill:none;stroke:#000000;stroke-linecap:round;stroke-width:1.75;"/>
   </g>
   <g id="line2d_24">
    <path clip-path="url(#p8c8d7628e3)" d="M 321.230769 49.846154 
L 387.692308 49.846154 
" style="fill:none;stroke:#000000;stroke-linecap:round;stroke-width:1.75;"/>
   </g>
   <g id="line2d_25">
    <path clip-path="url(#p8c8d7628e3)" d="M 188.307692 265.846154 
L 188.307692 166.153846 
" style="fill:none;stroke:#000000;stroke-linecap:round;stroke-width:1.75;"/>
   </g>
   <g id="line2d_26">
    <path clip-path="url(#p8c8d7628e3)" d="M 221.538462 265.846154 
L 221.538462 166.153846 
" style="fill:none;stroke:#000000;stroke-linecap:round;stroke-width:1.75;"/>
   </g>
   <g id="line2d_27">
    <path clip-path="url(#p8c8d7628e3)" d="M 254.769231 265.846154 
L 254.769231 166.153846 
" style="fill:none;stroke:#000000;stroke-linecap:round;stroke-width:1.75;"/>
   </g>
   <g id="line2d_28">
    <path clip-path="url(#p8c8d7628e3)" d="M 188.307692 265.846154 
L 254.769231 265.846154 
" style="fill:none;stroke:#000000;stroke-linecap:round;stroke-width:1.75;"/>
   </g>
   <g id="line2d_29">
    <path clip-path="url(#p8c8d7628e3)" d="M 188.307692 232.615385 
L 254.769231 232.615385 
" style="fill:none;stroke:#000000;stroke-linecap:round;stroke-width:1.75;"/>
   </g>
   <g id="line2d_30">
    <path clip-path="url(#p8c8d7628e3)" d="M 188.307692 199.384615 
L 254.769231 199.384615 
" style="fill:none;stroke:#000000;stroke-linecap:round;stroke-width:1.75;"/>
   </g>
   <g id="line2d_31">
    <path clip-path="url(#p8c8d7628e3)" d="M 188.307692 166.153846 
L 254.769231 166.153846 
" style="fill:none;stroke:#000000;stroke-linecap:round;stroke-width:1.75;"/>
   </g>
   <g id="line2d_32">
    <path clip-path="url(#p8c8d7628e3)" d="M 321.230769 249.230769 
L 321.230769 182.769231 
" style="fill:none;stroke:#000000;stroke-linecap:round;stroke-width:1.75;"/>
   </g>
   <g id="line2d_33">
    <path clip-path="url(#p8c8d7628e3)" d="M 354.461538 249.230769 
L 354.461538 182.769231 
" style="fill:none;stroke:#000000;stroke-linecap:round;stroke-width:1.75;"/>
   </g>
   <g id="line2d_34">
    <path clip-path="url(#p8c8d7628e3)" d="M 387.692308 249.230769 
L 387.692308 182.769231 
" style="fill:none;stroke:#000000;stroke-linecap:round;stroke-width:1.75;"/>
   </g>
   <g id="line2d_35">
    <path clip-path="url(#p8c8d7628e3)" d="M 321.230769 249.230769 
L 387.692308 249.230769 
" style="fill:none;stroke:#000000;stroke-linecap:round;stroke-width:1.75;"/>
   </g>
   <g id="line2d_36">
    <path clip-path="url(#p8c8d7628e3)" d="M 321.230769 216 
L 387.692308 216 
" style="fill:none;stroke:#000000;stroke-linecap:round;stroke-width:1.75;"/>
   </g>
   <g id="line2d_37">
    <path clip-path="url(#p8c8d7628e3)" d="M 321.230769 182.769231 
L 387.692308 182.769231 
" style="fill:none;stroke:#000000;stroke-linecap:round;stroke-width:1.75;"/>
   </g>
   <g id="line2d_38">
    <path clip-path="url(#p8c8d7628e3)" d="M 188.307692 398.769231 
L 188.307692 299.076923 
" style="fill:none;stroke:#000000;stroke-linecap:round;stroke-width:1.75;"/>
   </g>
   <g id="line2d_39">
    <path clip-path="url(#p8c8d7628e3)" d="M 221.538462 398.769231 
L 221.538462 299.076923 
" style="fill:none;stroke:#000000;stroke-linecap:round;stroke-width:1.75;"/>
   </g>
   <g id="line2d_40">
    <path clip-path="url(#p8c8d7628e3)" d="M 254.769231 398.769231 
L 254.769231 299.076923 
" style="fill:none;stroke:#000000;stroke-linecap:round;stroke-width:1.75;"/>
   </g>
   <g id="line2d_41">
    <path clip-path="url(#p8c8d7628e3)" d="M 188.307692 398.769231 
L 254.769231 398.769231 
" style="fill:none;stroke:#000000;stroke-linecap:round;stroke-width:1.75;"/>
   </g>
   <g id="line2d_42">
    <path clip-path="url(#p8c8d7628e3)" d="M 188.307692 365.538462 
L 254.769231 365.538462 
" style="fill:none;stroke:#000000;stroke-linecap:round;stroke-width:1.75;"/>
   </g>
   <g id="line2d_43">
    <path clip-path="url(#p8c8d7628e3)" d="M 188.307692 332.307692 
L 254.769231 332.307692 
" style="fill:none;stroke:#000000;stroke-linecap:round;stroke-width:1.75;"/>
   </g>
   <g id="line2d_44">
    <path clip-path="url(#p8c8d7628e3)" d="M 188.307692 299.076923 
L 254.769231 299.076923 
" style="fill:none;stroke:#000000;stroke-linecap:round;stroke-width:1.75;"/>
   </g>
   <g id="line2d_45">
    <path clip-path="url(#p8c8d7628e3)" d="M 321.230769 382.153846 
L 321.230769 315.692308 
" style="fill:none;stroke:#000000;stroke-linecap:round;stroke-width:1.75;"/>
   </g>
   <g id="line2d_46">
    <path clip-path="url(#p8c8d7628e3)" d="M 354.461538 382.153846 
L 354.461538 315.692308 
" style="fill:none;stroke:#000000;stroke-linecap:round;stroke-width:1.75;"/>
   </g>
   <g id="line2d_47">
    <path clip-path="url(#p8c8d7628e3)" d="M 387.692308 382.153846 
L 387.692308 315.692308 
" style="fill:none;stroke:#000000;stroke-linecap:round;stroke-width:1.75;"/>
   </g>
   <g id="line2d_48">
    <path clip-path="url(#p8c8d7628e3)" d="M 321.230769 382.153846 
L 387.692308 382.153846 
" style="fill:none;stroke:#000000;stroke-linecap:round;stroke-width:1.75;"/>
   </g>
   <g id="line2d_49">
    <path clip-path="url(#p8c8d7628e3)" d="M 321.230769 348.923077 
L 387.692308 348.923077 
" style="fill:none;stroke:#000000;stroke-linecap:round;stroke-width:1.75;"/>
   </g>
   <g id="line2d_50">
    <path clip-path="url(#p8c8d7628e3)" d="M 321.230769 315.692308 
L 387.692308 315.692308 
" style="fill:none;stroke:#000000;stroke-linecap:round;stroke-width:1.75;"/>
   </g>
   <g id="line2d_51">
    <path clip-path="url(#p8c8d7628e3)" d="M 454.153846 282.461538 
L 454.153846 149.538462 
" style="fill:none;stroke:#000000;stroke-linecap:round;stroke-width:1.75;"/>
   </g>
   <g id="line2d_52">
    <path clip-path="url(#p8c8d7628e3)" d="M 487.384615 282.461538 
L 487.384615 149.538462 
" style="fill:none;stroke:#000000;stroke-linecap:round;stroke-width:1.75;"/>
   </g>
   <g id="line2d_53">
    <path clip-path="url(#p8c8d7628e3)" d="M 520.615385 282.461538 
L 520.615385 149.538462 
" style="fill:none;stroke:#000000;stroke-linecap:round;stroke-width:1.75;"/>
   </g>
   <g id="line2d_54">
    <path clip-path="url(#p8c8d7628e3)" d="M 454.153846 282.461538 
L 520.615385 282.461538 
" style="fill:none;stroke:#000000;stroke-linecap:round;stroke-width:1.75;"/>
   </g>
   <g id="line2d_55">
    <path clip-path="url(#p8c8d7628e3)" d="M 454.153846 249.230769 
L 520.615385 249.230769 
" style="fill:none;stroke:#000000;stroke-linecap:round;stroke-width:1.75;"/>
   </g>
   <g id="line2d_56">
    <path clip-path="url(#p8c8d7628e3)" d="M 454.153846 216 
L 520.615385 216 
" style="fill:none;stroke:#000000;stroke-linecap:round;stroke-width:1.75;"/>
   </g>
   <g id="line2d_57">
    <path clip-path="url(#p8c8d7628e3)" d="M 454.153846 182.769231 
L 520.615385 182.769231 
" style="fill:none;stroke:#000000;stroke-linecap:round;stroke-width:1.75;"/>
   </g>
   <g id="line2d_58">
    <path clip-path="url(#p8c8d7628e3)" d="M 454.153846 149.538462 
L 520.615385 149.538462 
" style="fill:none;stroke:#000000;stroke-linecap:round;stroke-width:1.75;"/>
   </g>
   <g id="text_1">
    <!-- C -->
    <defs>
     <path d="M 58.796875 25.09375 
L 68.265625 22.703125 
Q 65.28125 11.03125 57.546875 4.90625 
Q 49.8125 -1.21875 38.625 -1.21875 
Q 27.046875 -1.21875 19.796875 3.484375 
Q 12.546875 8.203125 8.765625 17.140625 
Q 4.984375 26.078125 4.984375 36.328125 
Q 4.984375 47.515625 9.25 55.828125 
Q 13.53125 64.15625 21.40625 68.46875 
Q 29.296875 72.796875 38.765625 72.796875 
Q 49.515625 72.796875 56.828125 67.328125 
Q 64.15625 61.859375 67.046875 51.953125 
L 57.71875 49.75 
Q 55.21875 57.5625 50.484375 61.125 
Q 45.75 64.703125 38.578125 64.703125 
Q 30.328125 64.703125 24.78125 60.734375 
Q 19.234375 56.78125 16.984375 50.109375 
Q 14.75 43.453125 14.75 36.375 
Q 14.75 27.25 17.40625 20.4375 
Q 20.0625 13.625 25.671875 10.25 
Q 31.296875 6.890625 37.84375 6.890625 
Q 45.796875 6.890625 51.3125 11.46875 
Q 56.84375 16.0625 58.796875 25.09375 
" id="ArialMT-43"/>
    </defs>
    <g style="fill:#262626;" transform="translate(67.666875 318.794495)scale(0.12 -0.12)">
     <use xlink:href="#ArialMT-43"/>
    </g>
   </g>
   <g id="text_2">
    <!-- B -->
    <defs>
     <path d="M 7.328125 0 
L 7.328125 71.578125 
L 34.1875 71.578125 
Q 42.390625 71.578125 47.34375 69.40625 
Q 52.296875 67.234375 55.09375 62.71875 
Q 57.90625 58.203125 57.90625 53.265625 
Q 57.90625 48.6875 55.421875 44.625 
Q 52.9375 40.578125 47.90625 38.09375 
Q 54.390625 36.1875 57.875 31.59375 
Q 61.375 27 61.375 20.75 
Q 61.375 15.71875 59.25 11.390625 
Q 57.125 7.078125 54 4.734375 
Q 50.875 2.390625 46.15625 1.1875 
Q 41.453125 0 34.625 0 
z
M 16.796875 41.5 
L 32.28125 41.5 
Q 38.578125 41.5 41.3125 42.328125 
Q 44.921875 43.40625 46.75 45.890625 
Q 48.578125 48.390625 48.578125 52.15625 
Q 48.578125 55.71875 46.875 58.421875 
Q 45.171875 61.140625 41.984375 62.140625 
Q 38.8125 63.140625 31.109375 63.140625 
L 16.796875 63.140625 
z
M 16.796875 8.453125 
L 34.625 8.453125 
Q 39.203125 8.453125 41.0625 8.796875 
Q 44.34375 9.375 46.53125 10.734375 
Q 48.734375 12.109375 50.140625 14.71875 
Q 51.5625 17.328125 51.5625 20.75 
Q 51.5625 24.75 49.515625 27.703125 
Q 47.46875 30.671875 43.828125 31.859375 
Q 40.1875 33.0625 33.34375 33.0625 
L 16.796875 33.0625 
z
" id="ArialMT-42"/>
    </defs>
    <g style="fill:#262626;" transform="translate(67.997812 285.563726)scale(0.12 -0.12)">
     <use xlink:href="#ArialMT-42"/>
    </g>
   </g>
   <g id="text_3">
    <!-- A -->
    <defs>
     <path d="M -0.140625 0 
L 27.34375 71.578125 
L 37.546875 71.578125 
L 66.84375 0 
L 56.0625 0 
L 47.703125 21.6875 
L 17.78125 21.6875 
L 9.90625 0 
z
M 20.515625 29.390625 
L 44.78125 29.390625 
L 37.3125 49.21875 
Q 33.890625 58.25 32.234375 64.0625 
Q 30.859375 57.171875 28.375 50.390625 
z
" id="ArialMT-41"/>
    </defs>
    <g style="fill:#262626;" transform="translate(67.997812 252.332957)scale(0.12 -0.12)">
     <use xlink:href="#ArialMT-41"/>
    </g>
   </g>
   <g id="text_4">
    <!-- C -->
    <g style="fill:#262626;" transform="translate(67.666875 219.102188)scale(0.12 -0.12)">
     <use xlink:href="#ArialMT-43"/>
    </g>
   </g>
   <g id="text_5">
    <!-- B -->
    <g style="fill:#262626;" transform="translate(67.997812 185.871418)scale(0.12 -0.12)">
     <use xlink:href="#ArialMT-42"/>
    </g>
   </g>
   <g id="text_6">
    <!-- A -->
    <g style="fill:#262626;" transform="translate(67.997812 152.640649)scale(0.12 -0.12)">
     <use xlink:href="#ArialMT-41"/>
    </g>
   </g>
   <g id="text_7">
    <!-- data -->
    <defs>
     <path d="M 38.28125 7.515625 
Q 30.71875 -1.171875 22.46875 -1.171875 
Q 15.09375 -1.171875 10.1875 4.265625 
Q 5.28125 9.71875 5.28125 20.0625 
Q 5.28125 29.546875 9.15625 37.375 
Q 13.03125 45.21875 18.859375 49.125 
Q 24.703125 53.03125 30.5625 53.03125 
Q 40.234375 53.03125 45.171875 43.703125 
L 51.03125 71.578125 
L 59.8125 71.578125 
L 44.875 0 
L 36.71875 0 
z
M 14.0625 21.734375 
Q 14.0625 16.3125 15.140625 13.1875 
Q 16.21875 10.0625 18.796875 7.984375 
Q 21.390625 5.90625 25 5.90625 
Q 31 5.90625 35.890625 12.15625 
Q 42.4375 20.453125 42.4375 32.671875 
Q 42.4375 38.8125 39.203125 42.28125 
Q 35.984375 45.75 31.109375 45.75 
Q 27.9375 45.75 25.3125 44.328125 
Q 22.703125 42.921875 20.140625 39.53125 
Q 17.578125 36.140625 15.8125 30.90625 
Q 14.0625 25.6875 14.0625 21.734375 
" id="Arial-ItalicMT-64"/>
     <path d="M 38.28125 6.453125 
Q 33.6875 2.484375 29.4375 0.65625 
Q 25.203125 -1.171875 20.359375 -1.171875 
Q 13.1875 -1.171875 8.78125 3.046875 
Q 4.390625 7.28125 4.390625 13.875 
Q 4.390625 18.21875 6.359375 21.5625 
Q 8.34375 24.90625 11.609375 26.921875 
Q 14.890625 28.953125 19.625 29.828125 
Q 22.609375 30.421875 30.9375 30.765625 
Q 39.265625 31.109375 42.875 32.515625 
Q 43.890625 36.140625 43.890625 38.53125 
Q 43.890625 41.609375 41.65625 43.359375 
Q 38.578125 45.796875 32.671875 45.796875 
Q 27.09375 45.796875 23.546875 43.328125 
Q 20.015625 40.875 18.40625 36.328125 
L 9.46875 37.109375 
Q 12.203125 44.828125 18.140625 48.921875 
Q 24.078125 53.03125 33.109375 53.03125 
Q 42.71875 53.03125 48.34375 48.4375 
Q 52.640625 45.015625 52.640625 39.546875 
Q 52.640625 35.40625 51.421875 29.9375 
L 48.53125 17.046875 
Q 47.171875 10.890625 47.171875 7.03125 
Q 47.171875 4.59375 48.25 0 
L 39.3125 0 
Q 38.578125 2.546875 38.28125 6.453125 
M 41.546875 26.265625 
Q 39.703125 25.53125 37.578125 25.140625 
Q 35.453125 24.75 30.46875 24.3125 
Q 22.75 23.640625 19.578125 22.578125 
Q 16.40625 21.53125 14.796875 19.234375 
Q 13.1875 16.9375 13.1875 14.15625 
Q 13.1875 10.453125 15.75 8.0625 
Q 18.3125 5.671875 23.046875 5.671875 
Q 27.4375 5.671875 31.484375 7.984375 
Q 35.546875 10.296875 37.890625 14.453125 
Q 40.234375 18.609375 41.546875 26.265625 
" id="Arial-ItalicMT-61"/>
     <path d="M 23.96875 7.171875 
L 22.515625 -0.046875 
Q 19.34375 -0.875 16.359375 -0.875 
Q 11.078125 -0.875 7.953125 1.703125 
Q 5.609375 3.65625 5.609375 7.03125 
Q 5.609375 8.734375 6.890625 14.890625 
L 13.1875 45.015625 
L 6.203125 45.015625 
L 7.625 51.859375 
L 14.59375 51.859375 
L 17.28125 64.59375 
L 27.390625 70.703125 
L 23.4375 51.859375 
L 32.125 51.859375 
L 30.671875 45.015625 
L 22.015625 45.015625 
L 16.015625 16.359375 
Q 14.890625 10.890625 14.890625 9.8125 
Q 14.890625 8.25 15.796875 7.421875 
Q 16.703125 6.59375 18.75 6.59375 
Q 21.6875 6.59375 23.96875 7.171875 
" id="Arial-ItalicMT-74"/>
    </defs>
    <g style="fill:#262626;" transform="translate(93.554207 119.40988)scale(0.12 -0.12)">
     <use xlink:href="#Arial-ItalicMT-64"/>
     <use x="55.615234" xlink:href="#Arial-ItalicMT-61"/>
     <use x="111.230469" xlink:href="#Arial-ItalicMT-74"/>
     <use x="139.013672" xlink:href="#Arial-ItalicMT-61"/>
    </g>
   </g>
   <g id="text_8">
    <!-- key -->
    <defs>
     <path d="M 3.421875 0 
L 18.40625 71.578125 
L 27.203125 71.578125 
L 17.921875 27.203125 
L 43.703125 51.859375 
L 55.375 51.859375 
L 33.25 32.515625 
L 46.625 0 
L 36.96875 0 
L 26.609375 26.609375 
L 15.875 17.328125 
L 12.25 0 
z
" id="Arial-ItalicMT-6b"/>
     <path d="M 41.40625 17.625 
L 50 16.75 
Q 48.140625 10.359375 41.46875 4.59375 
Q 34.8125 -1.171875 25.59375 -1.171875 
Q 19.828125 -1.171875 15.015625 1.484375 
Q 10.203125 4.15625 7.6875 9.234375 
Q 5.171875 14.3125 5.171875 20.796875 
Q 5.171875 29.296875 9.09375 37.28125 
Q 13.03125 45.265625 19.28125 49.140625 
Q 25.53125 53.03125 32.8125 53.03125 
Q 42.09375 53.03125 47.625 47.265625 
Q 53.171875 41.5 53.171875 31.546875 
Q 53.171875 27.734375 52.484375 23.734375 
L 14.3125 23.734375 
Q 14.109375 22.21875 14.109375 21 
Q 14.109375 13.71875 17.453125 9.890625 
Q 20.796875 6.0625 25.640625 6.0625 
Q 30.171875 6.0625 34.5625 9.03125 
Q 38.96875 12.015625 41.40625 17.625 
M 15.71875 30.46875 
L 44.828125 30.46875 
Q 44.875 31.84375 44.875 32.421875 
Q 44.875 39.0625 41.546875 42.59375 
Q 38.234375 46.140625 33.015625 46.140625 
Q 27.34375 46.140625 22.671875 42.234375 
Q 18.015625 38.328125 15.71875 30.46875 
" id="Arial-ItalicMT-65"/>
     <path d="M 0 -20.015625 
L 0.53125 -11.71875 
Q 3.265625 -12.5 5.859375 -12.5 
Q 8.546875 -12.5 10.203125 -11.28125 
Q 12.359375 -9.671875 14.890625 -5.21875 
L 17.71875 -0.140625 
L 9.078125 51.859375 
L 17.78125 51.859375 
L 21.6875 25.640625 
Q 22.859375 17.875 23.6875 10.109375 
L 46.875 51.859375 
L 56.109375 51.859375 
L 23.046875 -6.890625 
Q 18.265625 -15.484375 14.546875 -18.265625 
Q 10.84375 -21.046875 6 -21.046875 
Q 2.9375 -21.046875 0 -20.015625 
" id="Arial-ItalicMT-79"/>
    </defs>
    <g style="fill:#262626;" transform="translate(62.663437 119.339567)scale(0.12 -0.12)">
     <use xlink:href="#Arial-ItalicMT-6b"/>
     <use x="50" xlink:href="#Arial-ItalicMT-65"/>
     <use x="105.615234" xlink:href="#Arial-ItalicMT-79"/>
    </g>
   </g>
   <g id="text_9">
    <!-- 6 -->
    <defs>
     <path d="M 49.75 54.046875 
L 41.015625 53.375 
Q 39.84375 58.546875 37.703125 60.890625 
Q 34.125 64.65625 28.90625 64.65625 
Q 24.703125 64.65625 21.53125 62.3125 
Q 17.390625 59.28125 14.984375 53.46875 
Q 12.59375 47.65625 12.5 36.921875 
Q 15.671875 41.75 20.265625 44.09375 
Q 24.859375 46.4375 29.890625 46.4375 
Q 38.671875 46.4375 44.84375 39.96875 
Q 51.03125 33.5 51.03125 23.25 
Q 51.03125 16.5 48.125 10.71875 
Q 45.21875 4.9375 40.140625 1.859375 
Q 35.0625 -1.21875 28.609375 -1.21875 
Q 17.625 -1.21875 10.6875 6.859375 
Q 3.765625 14.9375 3.765625 33.5 
Q 3.765625 54.25 11.421875 63.671875 
Q 18.109375 71.875 29.4375 71.875 
Q 37.890625 71.875 43.28125 67.140625 
Q 48.6875 62.40625 49.75 54.046875 
M 13.875 23.1875 
Q 13.875 18.65625 15.796875 14.5 
Q 17.71875 10.359375 21.1875 8.171875 
Q 24.65625 6 28.46875 6 
Q 34.03125 6 38.03125 10.484375 
Q 42.046875 14.984375 42.046875 22.703125 
Q 42.046875 30.125 38.078125 34.390625 
Q 34.125 38.671875 28.125 38.671875 
Q 22.171875 38.671875 18.015625 34.390625 
Q 13.875 30.125 13.875 23.1875 
" id="ArialMT-36"/>
    </defs>
    <g style="fill:#262626;" transform="translate(101.894207 318.794495)scale(0.12 -0.12)">
     <use xlink:href="#ArialMT-36"/>
    </g>
   </g>
   <g id="text_10">
    <!-- 5 -->
    <defs>
     <path d="M 4.15625 18.75 
L 13.375 19.53125 
Q 14.40625 12.796875 18.140625 9.390625 
Q 21.875 6 27.15625 6 
Q 33.5 6 37.890625 10.78125 
Q 42.28125 15.578125 42.28125 23.484375 
Q 42.28125 31 38.0625 35.34375 
Q 33.84375 39.703125 27 39.703125 
Q 22.75 39.703125 19.328125 37.765625 
Q 15.921875 35.84375 13.96875 32.765625 
L 5.71875 33.84375 
L 12.640625 70.609375 
L 48.25 70.609375 
L 48.25 62.203125 
L 19.671875 62.203125 
L 15.828125 42.96875 
Q 22.265625 47.46875 29.34375 47.46875 
Q 38.71875 47.46875 45.15625 40.96875 
Q 51.609375 34.46875 51.609375 24.265625 
Q 51.609375 14.546875 45.953125 7.46875 
Q 39.0625 -1.21875 27.15625 -1.21875 
Q 17.390625 -1.21875 11.203125 4.25 
Q 5.03125 9.71875 4.15625 18.75 
" id="ArialMT-35"/>
    </defs>
    <g style="fill:#262626;" transform="translate(101.894207 285.563726)scale(0.12 -0.12)">
     <use xlink:href="#ArialMT-35"/>
    </g>
   </g>
   <g id="text_11">
    <!-- 4 -->
    <defs>
     <path d="M 32.328125 0 
L 32.328125 17.140625 
L 1.265625 17.140625 
L 1.265625 25.203125 
L 33.9375 71.578125 
L 41.109375 71.578125 
L 41.109375 25.203125 
L 50.78125 25.203125 
L 50.78125 17.140625 
L 41.109375 17.140625 
L 41.109375 0 
z
M 32.328125 25.203125 
L 32.328125 57.46875 
L 9.90625 25.203125 
z
" id="ArialMT-34"/>
    </defs>
    <g style="fill:#262626;" transform="translate(101.894207 252.332957)scale(0.12 -0.12)">
     <use xlink:href="#ArialMT-34"/>
    </g>
   </g>
   <g id="text_12">
    <!-- 3 -->
    <defs>
     <path d="M 4.203125 18.890625 
L 12.984375 20.0625 
Q 14.5 12.59375 18.140625 9.296875 
Q 21.78125 6 27 6 
Q 33.203125 6 37.46875 10.296875 
Q 41.75 14.59375 41.75 20.953125 
Q 41.75 27 37.796875 30.921875 
Q 33.84375 34.859375 27.734375 34.859375 
Q 25.25 34.859375 21.53125 33.890625 
L 22.515625 41.609375 
Q 23.390625 41.5 23.921875 41.5 
Q 29.546875 41.5 34.03125 44.421875 
Q 38.53125 47.359375 38.53125 53.46875 
Q 38.53125 58.296875 35.25 61.46875 
Q 31.984375 64.65625 26.8125 64.65625 
Q 21.6875 64.65625 18.265625 61.421875 
Q 14.84375 58.203125 13.875 51.765625 
L 5.078125 53.328125 
Q 6.6875 62.15625 12.390625 67.015625 
Q 18.109375 71.875 26.609375 71.875 
Q 32.46875 71.875 37.390625 69.359375 
Q 42.328125 66.84375 44.9375 62.5 
Q 47.5625 58.15625 47.5625 53.265625 
Q 47.5625 48.640625 45.0625 44.828125 
Q 42.578125 41.015625 37.703125 38.765625 
Q 44.046875 37.3125 47.5625 32.6875 
Q 51.078125 28.078125 51.078125 21.140625 
Q 51.078125 11.765625 44.234375 5.25 
Q 37.40625 -1.265625 26.953125 -1.265625 
Q 17.53125 -1.265625 11.296875 4.34375 
Q 5.078125 9.96875 4.203125 18.890625 
" id="ArialMT-33"/>
    </defs>
    <g style="fill:#262626;" transform="translate(101.894207 219.102188)scale(0.12 -0.12)">
     <use xlink:href="#ArialMT-33"/>
    </g>
   </g>
   <g id="text_13">
    <!-- 2 -->
    <defs>
     <path d="M 50.34375 8.453125 
L 50.34375 0 
L 3.03125 0 
Q 2.9375 3.171875 4.046875 6.109375 
Q 5.859375 10.9375 9.828125 15.625 
Q 13.8125 20.3125 21.34375 26.46875 
Q 33.015625 36.03125 37.109375 41.625 
Q 41.21875 47.21875 41.21875 52.203125 
Q 41.21875 57.421875 37.46875 61 
Q 33.734375 64.59375 27.734375 64.59375 
Q 21.390625 64.59375 17.578125 60.78125 
Q 13.765625 56.984375 13.71875 50.25 
L 4.6875 51.171875 
Q 5.609375 61.28125 11.65625 66.578125 
Q 17.71875 71.875 27.9375 71.875 
Q 38.234375 71.875 44.234375 66.15625 
Q 50.25 60.453125 50.25 52 
Q 50.25 47.703125 48.484375 43.546875 
Q 46.734375 39.40625 42.65625 34.8125 
Q 38.578125 30.21875 29.109375 22.21875 
Q 21.1875 15.578125 18.9375 13.203125 
Q 16.703125 10.84375 15.234375 8.453125 
z
" id="ArialMT-32"/>
    </defs>
    <g style="fill:#262626;" transform="translate(101.894207 185.871418)scale(0.12 -0.12)">
     <use xlink:href="#ArialMT-32"/>
    </g>
   </g>
   <g id="text_14">
    <!-- 1 -->
    <defs>
     <path d="M 37.25 0 
L 28.46875 0 
L 28.46875 56 
Q 25.296875 52.984375 20.140625 49.953125 
Q 14.984375 46.921875 10.890625 45.40625 
L 10.890625 53.90625 
Q 18.265625 57.375 23.78125 62.296875 
Q 29.296875 67.234375 31.59375 71.875 
L 37.25 71.875 
z
" id="ArialMT-31"/>
    </defs>
    <g style="fill:#262626;" transform="translate(101.894207 152.640649)scale(0.12 -0.12)">
     <use xlink:href="#ArialMT-31"/>
    </g>
   </g>
   <g id="text_15">
    <!-- A -->
    <g style="fill:#262626;" transform="translate(200.920889 119.40988)scale(0.12 -0.12)">
     <use xlink:href="#ArialMT-41"/>
    </g>
   </g>
   <g id="text_16">
    <!-- A -->
    <g style="fill:#262626;" transform="translate(200.920889 86.179111)scale(0.12 -0.12)">
     <use xlink:href="#ArialMT-41"/>
    </g>
   </g>
   <g id="text_17">
    <!-- data -->
    <g style="fill:#262626;" transform="translate(226.477284 52.948341)scale(0.12 -0.12)">
     <use xlink:href="#Arial-ItalicMT-64"/>
     <use x="55.615234" xlink:href="#Arial-ItalicMT-61"/>
     <use x="111.230469" xlink:href="#Arial-ItalicMT-74"/>
     <use x="139.013672" xlink:href="#Arial-ItalicMT-61"/>
    </g>
   </g>
   <g id="text_18">
    <!-- key -->
    <g style="fill:#262626;" transform="translate(195.586514 52.878029)scale(0.12 -0.12)">
     <use xlink:href="#Arial-ItalicMT-6b"/>
     <use x="50" xlink:href="#Arial-ItalicMT-65"/>
     <use x="105.615234" xlink:href="#Arial-ItalicMT-79"/>
    </g>
   </g>
   <g id="text_19">
    <!-- 4 -->
    <g style="fill:#262626;" transform="translate(234.817284 119.40988)scale(0.12 -0.12)">
     <use xlink:href="#ArialMT-34"/>
    </g>
   </g>
   <g id="text_20">
    <!-- 1 -->
    <g style="fill:#262626;" transform="translate(234.817284 86.179111)scale(0.12 -0.12)">
     <use xlink:href="#ArialMT-31"/>
    </g>
   </g>
   <g id="text_21">
    <!-- A -->
    <g style="fill:#262626;" transform="translate(333.843966 102.794495)scale(0.12 -0.12)">
     <use xlink:href="#ArialMT-41"/>
    </g>
   </g>
   <g id="text_22">
    <!-- data -->
    <g style="fill:#262626;" transform="translate(359.400361 69.563726)scale(0.12 -0.12)">
     <use xlink:href="#Arial-ItalicMT-64"/>
     <use x="55.615234" xlink:href="#Arial-ItalicMT-61"/>
     <use x="111.230469" xlink:href="#Arial-ItalicMT-74"/>
     <use x="139.013672" xlink:href="#Arial-ItalicMT-61"/>
    </g>
   </g>
   <g id="text_23">
    <!-- key -->
    <g style="fill:#262626;" transform="translate(328.509591 69.493413)scale(0.12 -0.12)">
     <use xlink:href="#Arial-ItalicMT-6b"/>
     <use x="50" xlink:href="#Arial-ItalicMT-65"/>
     <use x="105.615234" xlink:href="#Arial-ItalicMT-79"/>
    </g>
   </g>
   <g id="text_24">
    <!-- 5 -->
    <g style="fill:#262626;" transform="translate(367.740361 102.794495)scale(0.12 -0.12)">
     <use xlink:href="#ArialMT-35"/>
    </g>
   </g>
   <g id="text_25">
    <!-- B -->
    <g style="fill:#262626;" transform="translate(200.920889 252.332957)scale(0.12 -0.12)">
     <use xlink:href="#ArialMT-42"/>
    </g>
   </g>
   <g id="text_26">
    <!-- B -->
    <g style="fill:#262626;" transform="translate(200.920889 219.102188)scale(0.12 -0.12)">
     <use xlink:href="#ArialMT-42"/>
    </g>
   </g>
   <g id="text_27">
    <!-- data -->
    <g style="fill:#262626;" transform="translate(226.477284 185.871418)scale(0.12 -0.12)">
     <use xlink:href="#Arial-ItalicMT-64"/>
     <use x="55.615234" xlink:href="#Arial-ItalicMT-61"/>
     <use x="111.230469" xlink:href="#Arial-ItalicMT-74"/>
     <use x="139.013672" xlink:href="#Arial-ItalicMT-61"/>
    </g>
   </g>
   <g id="text_28">
    <!-- key -->
    <g style="fill:#262626;" transform="translate(195.586514 185.801106)scale(0.12 -0.12)">
     <use xlink:href="#Arial-ItalicMT-6b"/>
     <use x="50" xlink:href="#Arial-ItalicMT-65"/>
     <use x="105.615234" xlink:href="#Arial-ItalicMT-79"/>
    </g>
   </g>
   <g id="text_29">
    <!-- 5 -->
    <g style="fill:#262626;" transform="translate(234.817284 252.332957)scale(0.12 -0.12)">
     <use xlink:href="#ArialMT-35"/>
    </g>
   </g>
   <g id="text_30">
    <!-- 2 -->
    <g style="fill:#262626;" transform="translate(234.817284 219.102188)scale(0.12 -0.12)">
     <use xlink:href="#ArialMT-32"/>
    </g>
   </g>
   <g id="text_31">
    <!-- B -->
    <g style="fill:#262626;" transform="translate(333.843966 235.717572)scale(0.12 -0.12)">
     <use xlink:href="#ArialMT-42"/>
    </g>
   </g>
   <g id="text_32">
    <!-- data -->
    <g style="fill:#262626;" transform="translate(359.400361 202.486803)scale(0.12 -0.12)">
     <use xlink:href="#Arial-ItalicMT-64"/>
     <use x="55.615234" xlink:href="#Arial-ItalicMT-61"/>
     <use x="111.230469" xlink:href="#Arial-ItalicMT-74"/>
     <use x="139.013672" xlink:href="#Arial-ItalicMT-61"/>
    </g>
   </g>
   <g id="text_33">
    <!-- key -->
    <g style="fill:#262626;" transform="translate(328.509591 202.41649)scale(0.12 -0.12)">
     <use xlink:href="#Arial-ItalicMT-6b"/>
     <use x="50" xlink:href="#Arial-ItalicMT-65"/>
     <use x="105.615234" xlink:href="#Arial-ItalicMT-79"/>
    </g>
   </g>
   <g id="text_34">
    <!-- 7 -->
    <defs>
     <path d="M 4.734375 62.203125 
L 4.734375 70.65625 
L 51.078125 70.65625 
L 51.078125 63.8125 
Q 44.234375 56.546875 37.515625 44.484375 
Q 30.8125 32.421875 27.15625 19.671875 
Q 24.515625 10.6875 23.78125 0 
L 14.75 0 
Q 14.890625 8.453125 18.0625 20.40625 
Q 21.234375 32.375 27.171875 43.484375 
Q 33.109375 54.59375 39.796875 62.203125 
z
" id="ArialMT-37"/>
    </defs>
    <g style="fill:#262626;" transform="translate(367.740361 235.717572)scale(0.12 -0.12)">
     <use xlink:href="#ArialMT-37"/>
    </g>
   </g>
   <g id="text_35">
    <!-- C -->
    <g style="fill:#262626;" transform="translate(200.589952 385.256034)scale(0.12 -0.12)">
     <use xlink:href="#ArialMT-43"/>
    </g>
   </g>
   <g id="text_36">
    <!-- C -->
    <g style="fill:#262626;" transform="translate(200.589952 352.025264)scale(0.12 -0.12)">
     <use xlink:href="#ArialMT-43"/>
    </g>
   </g>
   <g id="text_37">
    <!-- data -->
    <g style="fill:#262626;" transform="translate(226.477284 318.794495)scale(0.12 -0.12)">
     <use xlink:href="#Arial-ItalicMT-64"/>
     <use x="55.615234" xlink:href="#Arial-ItalicMT-61"/>
     <use x="111.230469" xlink:href="#Arial-ItalicMT-74"/>
     <use x="139.013672" xlink:href="#Arial-ItalicMT-61"/>
    </g>
   </g>
   <g id="text_38">
    <!-- key -->
    <g style="fill:#262626;" transform="translate(195.586514 318.724183)scale(0.12 -0.12)">
     <use xlink:href="#Arial-ItalicMT-6b"/>
     <use x="50" xlink:href="#Arial-ItalicMT-65"/>
     <use x="105.615234" xlink:href="#Arial-ItalicMT-79"/>
    </g>
   </g>
   <g id="text_39">
    <!-- 6 -->
    <g style="fill:#262626;" transform="translate(234.817284 385.256034)scale(0.12 -0.12)">
     <use xlink:href="#ArialMT-36"/>
    </g>
   </g>
   <g id="text_40">
    <!-- 3 -->
    <g style="fill:#262626;" transform="translate(234.817284 352.025264)scale(0.12 -0.12)">
     <use xlink:href="#ArialMT-33"/>
    </g>
   </g>
   <g id="text_41">
    <!-- C -->
    <g style="fill:#262626;" transform="translate(333.513029 368.640649)scale(0.12 -0.12)">
     <use xlink:href="#ArialMT-43"/>
    </g>
   </g>
   <g id="text_42">
    <!-- data -->
    <g style="fill:#262626;" transform="translate(359.400361 335.40988)scale(0.12 -0.12)">
     <use xlink:href="#Arial-ItalicMT-64"/>
     <use x="55.615234" xlink:href="#Arial-ItalicMT-61"/>
     <use x="111.230469" xlink:href="#Arial-ItalicMT-74"/>
     <use x="139.013672" xlink:href="#Arial-ItalicMT-61"/>
    </g>
   </g>
   <g id="text_43">
    <!-- key -->
    <g style="fill:#262626;" transform="translate(328.509591 335.339567)scale(0.12 -0.12)">
     <use xlink:href="#Arial-ItalicMT-6b"/>
     <use x="50" xlink:href="#Arial-ItalicMT-65"/>
     <use x="105.615234" xlink:href="#Arial-ItalicMT-79"/>
    </g>
   </g>
   <g id="text_44">
    <!-- 9 -->
    <defs>
     <path d="M 5.46875 16.546875 
L 13.921875 17.328125 
Q 14.984375 11.375 18.015625 8.6875 
Q 21.046875 6 25.78125 6 
Q 29.828125 6 32.875 7.859375 
Q 35.9375 9.71875 37.890625 12.8125 
Q 39.84375 15.921875 41.15625 21.1875 
Q 42.484375 26.46875 42.484375 31.9375 
Q 42.484375 32.515625 42.4375 33.6875 
Q 39.796875 29.5 35.234375 26.875 
Q 30.671875 24.265625 25.34375 24.265625 
Q 16.453125 24.265625 10.296875 30.703125 
Q 4.15625 37.15625 4.15625 47.703125 
Q 4.15625 58.59375 10.578125 65.234375 
Q 17 71.875 26.65625 71.875 
Q 33.640625 71.875 39.421875 68.109375 
Q 45.21875 64.359375 48.21875 57.390625 
Q 51.21875 50.4375 51.21875 37.25 
Q 51.21875 23.53125 48.234375 15.40625 
Q 45.265625 7.28125 39.375 3.03125 
Q 33.5 -1.21875 25.59375 -1.21875 
Q 17.1875 -1.21875 11.859375 3.4375 
Q 6.546875 8.109375 5.46875 16.546875 
M 41.453125 48.140625 
Q 41.453125 55.71875 37.421875 60.15625 
Q 33.40625 64.59375 27.734375 64.59375 
Q 21.875 64.59375 17.53125 59.8125 
Q 13.1875 55.03125 13.1875 47.40625 
Q 13.1875 40.578125 17.3125 36.296875 
Q 21.4375 32.03125 27.484375 32.03125 
Q 33.59375 32.03125 37.515625 36.296875 
Q 41.453125 40.578125 41.453125 48.140625 
" id="ArialMT-39"/>
    </defs>
    <g style="fill:#262626;" transform="translate(367.740361 368.640649)scale(0.12 -0.12)">
     <use xlink:href="#ArialMT-39"/>
    </g>
   </g>
   <g id="text_45">
    <!-- C -->
    <g style="fill:#262626;" transform="translate(466.436106 268.948341)scale(0.12 -0.12)">
     <use xlink:href="#ArialMT-43"/>
    </g>
   </g>
   <g id="text_46">
    <!-- B -->
    <g style="fill:#262626;" transform="translate(466.767043 235.717572)scale(0.12 -0.12)">
     <use xlink:href="#ArialMT-42"/>
    </g>
   </g>
   <g id="text_47">
    <!-- A -->
    <g style="fill:#262626;" transform="translate(466.767043 202.486803)scale(0.12 -0.12)">
     <use xlink:href="#ArialMT-41"/>
    </g>
   </g>
   <g id="text_48">
    <!-- data -->
    <g style="fill:#262626;" transform="translate(492.323438 169.256034)scale(0.12 -0.12)">
     <use xlink:href="#Arial-ItalicMT-64"/>
     <use x="55.615234" xlink:href="#Arial-ItalicMT-61"/>
     <use x="111.230469" xlink:href="#Arial-ItalicMT-74"/>
     <use x="139.013672" xlink:href="#Arial-ItalicMT-61"/>
    </g>
   </g>
   <g id="text_49">
    <!-- key -->
    <g style="fill:#262626;" transform="translate(461.432668 169.185721)scale(0.12 -0.12)">
     <use xlink:href="#Arial-ItalicMT-6b"/>
     <use x="50" xlink:href="#Arial-ItalicMT-65"/>
     <use x="105.615234" xlink:href="#Arial-ItalicMT-79"/>
    </g>
   </g>
   <g id="text_50">
    <!-- 9 -->
    <g style="fill:#262626;" transform="translate(500.663437 268.948341)scale(0.12 -0.12)">
     <use xlink:href="#ArialMT-39"/>
    </g>
   </g>
   <g id="text_51">
    <!-- 7 -->
    <g style="fill:#262626;" transform="translate(500.663437 235.717572)scale(0.12 -0.12)">
     <use xlink:href="#ArialMT-37"/>
    </g>
   </g>
   <g id="text_52">
    <!-- 5 -->
    <g style="fill:#262626;" transform="translate(500.663437 202.486803)scale(0.12 -0.12)">
     <use xlink:href="#ArialMT-35"/>
    </g>
   </g>
   <g id="text_53">
    <!-- Input -->
    <defs>
     <path d="M 6.84375 0 
L 6.84375 71.578125 
L 21.296875 71.578125 
L 21.296875 0 
z
" id="Arial-BoldMT-49"/>
     <path d="M 54.34375 0 
L 40.625 0 
L 40.625 26.46875 
Q 40.625 34.859375 39.75 37.328125 
Q 38.875 39.796875 36.890625 41.15625 
Q 34.90625 42.53125 32.125 42.53125 
Q 28.5625 42.53125 25.734375 40.578125 
Q 22.90625 38.625 21.84375 35.390625 
Q 20.796875 32.171875 20.796875 23.484375 
L 20.796875 0 
L 7.078125 0 
L 7.078125 51.859375 
L 19.828125 51.859375 
L 19.828125 44.234375 
Q 26.609375 53.03125 36.921875 53.03125 
Q 41.453125 53.03125 45.203125 51.390625 
Q 48.96875 49.75 50.890625 47.203125 
Q 52.828125 44.671875 53.578125 41.453125 
Q 54.34375 38.234375 54.34375 32.234375 
z
" id="Arial-BoldMT-6e"/>
     <path d="M 6.78125 51.859375 
L 19.578125 51.859375 
L 19.578125 44.234375 
Q 22.078125 48.140625 26.3125 50.578125 
Q 30.5625 53.03125 35.75 53.03125 
Q 44.78125 53.03125 51.078125 45.953125 
Q 57.375 38.875 57.375 26.21875 
Q 57.375 13.234375 51.015625 6.03125 
Q 44.671875 -1.171875 35.640625 -1.171875 
Q 31.34375 -1.171875 27.84375 0.53125 
Q 24.359375 2.25 20.515625 6.390625 
L 20.515625 -19.734375 
L 6.78125 -19.734375 
z
M 20.359375 26.8125 
Q 20.359375 18.0625 23.828125 13.890625 
Q 27.296875 9.71875 32.28125 9.71875 
Q 37.0625 9.71875 40.234375 13.546875 
Q 43.40625 17.390625 43.40625 26.125 
Q 43.40625 34.28125 40.125 38.234375 
Q 36.859375 42.1875 32.03125 42.1875 
Q 27 42.1875 23.671875 38.296875 
Q 20.359375 34.421875 20.359375 26.8125 
" id="Arial-BoldMT-70"/>
     <path d="M 41.3125 0 
L 41.3125 7.765625 
Q 38.484375 3.609375 33.859375 1.21875 
Q 29.25 -1.171875 24.125 -1.171875 
Q 18.890625 -1.171875 14.734375 1.125 
Q 10.59375 3.421875 8.734375 7.5625 
Q 6.890625 11.71875 6.890625 19.046875 
L 6.890625 51.859375 
L 20.609375 51.859375 
L 20.609375 28.03125 
Q 20.609375 17.09375 21.359375 14.625 
Q 22.125 12.15625 24.125 10.71875 
Q 26.125 9.28125 29.203125 9.28125 
Q 32.71875 9.28125 35.5 11.203125 
Q 38.28125 13.140625 39.296875 15.984375 
Q 40.328125 18.84375 40.328125 29.984375 
L 40.328125 51.859375 
L 54.046875 51.859375 
L 54.046875 0 
z
" id="Arial-BoldMT-75"/>
     <path d="M 30.953125 51.859375 
L 30.953125 40.921875 
L 21.578125 40.921875 
L 21.578125 20.015625 
Q 21.578125 13.671875 21.84375 12.625 
Q 22.125 11.578125 23.078125 10.890625 
Q 24.03125 10.203125 25.390625 10.203125 
Q 27.296875 10.203125 30.90625 11.53125 
L 32.078125 0.875 
Q 27.296875 -1.171875 21.234375 -1.171875 
Q 17.53125 -1.171875 14.546875 0.0625 
Q 11.578125 1.3125 10.1875 3.296875 
Q 8.796875 5.28125 8.25 8.640625 
Q 7.8125 11.03125 7.8125 18.3125 
L 7.8125 40.921875 
L 1.515625 40.921875 
L 1.515625 51.859375 
L 7.8125 51.859375 
L 7.8125 62.15625 
L 21.578125 70.171875 
L 21.578125 51.859375 
z
" id="Arial-BoldMT-74"/>
    </defs>
    <g style="fill:#262626;" transform="translate(71.51351 93.046154)scale(0.14 -0.14)">
     <use xlink:href="#Arial-BoldMT-49"/>
     <use x="27.783203" xlink:href="#Arial-BoldMT-6e"/>
     <use x="88.867188" xlink:href="#Arial-BoldMT-70"/>
     <use x="149.951172" xlink:href="#Arial-BoldMT-75"/>
     <use x="211.035156" xlink:href="#Arial-BoldMT-74"/>
    </g>
   </g>
   <g id="text_54">
    <!-- Split -->
    <defs>
     <path d="M 3.609375 23.296875 
L 17.671875 24.65625 
Q 18.953125 17.578125 22.828125 14.25 
Q 26.703125 10.9375 33.296875 10.9375 
Q 40.28125 10.9375 43.8125 13.890625 
Q 47.359375 16.84375 47.359375 20.796875 
Q 47.359375 23.34375 45.875 25.125 
Q 44.390625 26.90625 40.671875 28.21875 
Q 38.140625 29.109375 29.109375 31.34375 
Q 17.484375 34.234375 12.796875 38.421875 
Q 6.203125 44.34375 6.203125 52.828125 
Q 6.203125 58.296875 9.296875 63.0625 
Q 12.40625 67.828125 18.234375 70.3125 
Q 24.078125 72.796875 32.328125 72.796875 
Q 45.796875 72.796875 52.609375 66.890625 
Q 59.421875 60.984375 59.765625 51.125 
L 45.3125 50.484375 
Q 44.390625 56 41.328125 58.421875 
Q 38.28125 60.84375 32.171875 60.84375 
Q 25.875 60.84375 22.3125 58.25 
Q 20.015625 56.59375 20.015625 53.8125 
Q 20.015625 51.265625 22.171875 49.46875 
Q 24.90625 47.171875 35.453125 44.671875 
Q 46 42.1875 51.046875 39.515625 
Q 56.109375 36.859375 58.953125 32.25 
Q 61.8125 27.640625 61.8125 20.84375 
Q 61.8125 14.703125 58.390625 9.328125 
Q 54.984375 3.953125 48.734375 1.34375 
Q 42.484375 -1.265625 33.15625 -1.265625 
Q 19.578125 -1.265625 12.296875 5 
Q 5.03125 11.28125 3.609375 23.296875 
" id="Arial-BoldMT-53"/>
     <path d="M 7.171875 0 
L 7.171875 71.578125 
L 20.90625 71.578125 
L 20.90625 0 
z
" id="Arial-BoldMT-6c"/>
     <path d="M 7.171875 58.890625 
L 7.171875 71.578125 
L 20.90625 71.578125 
L 20.90625 58.890625 
z
M 7.171875 0 
L 7.171875 51.859375 
L 20.90625 51.859375 
L 20.90625 0 
z
" id="Arial-BoldMT-69"/>
    </defs>
    <g style="fill:#262626;" transform="translate(206.373618 26.584615)scale(0.14 -0.14)">
     <use xlink:href="#Arial-BoldMT-53"/>
     <use x="66.699219" xlink:href="#Arial-BoldMT-70"/>
     <use x="127.783203" xlink:href="#Arial-BoldMT-6c"/>
     <use x="155.566406" xlink:href="#Arial-BoldMT-69"/>
     <use x="183.349609" xlink:href="#Arial-BoldMT-74"/>
    </g>
   </g>
   <g id="text_55">
    <!-- Apply (sum) -->
    <defs>
     <path d="M 71.828125 0 
L 56.109375 0 
L 49.859375 16.265625 
L 21.234375 16.265625 
L 15.328125 0 
L 0 0 
L 27.875 71.578125 
L 43.171875 71.578125 
z
M 45.21875 28.328125 
L 35.359375 54.890625 
L 25.6875 28.328125 
z
" id="Arial-BoldMT-41"/>
     <path d="M 0.6875 51.859375 
L 15.28125 51.859375 
L 27.6875 15.046875 
L 39.796875 51.859375 
L 54 51.859375 
L 35.6875 1.953125 
L 32.421875 -7.078125 
Q 30.609375 -11.625 28.96875 -14.015625 
Q 27.34375 -16.40625 25.21875 -17.890625 
Q 23.09375 -19.390625 19.984375 -20.21875 
Q 16.890625 -21.046875 12.984375 -21.046875 
Q 9.03125 -21.046875 5.21875 -20.21875 
L 4 -9.46875 
Q 7.234375 -10.109375 9.8125 -10.109375 
Q 14.59375 -10.109375 16.890625 -7.296875 
Q 19.1875 -4.5 20.40625 -0.140625 
z
" id="Arial-BoldMT-79"/>
     <path id="Arial-BoldMT-20"/>
     <path d="M 29.9375 -21.046875 
L 20.515625 -21.046875 
Q 13.03125 -9.765625 9.125 2.390625 
Q 5.21875 14.546875 5.21875 25.921875 
Q 5.21875 40.046875 10.0625 52.640625 
Q 14.265625 63.578125 20.703125 72.796875 
L 30.078125 72.796875 
Q 23.390625 58.015625 20.875 47.625 
Q 18.359375 37.25 18.359375 25.640625 
Q 18.359375 17.625 19.84375 9.21875 
Q 21.34375 0.828125 23.921875 -6.734375 
Q 25.640625 -11.71875 29.9375 -21.046875 
" id="Arial-BoldMT-28"/>
     <path d="M 2.34375 14.796875 
L 16.109375 16.890625 
Q 17 12.890625 19.671875 10.8125 
Q 22.359375 8.734375 27.203125 8.734375 
Q 32.515625 8.734375 35.203125 10.6875 
Q 37.015625 12.0625 37.015625 14.359375 
Q 37.015625 15.921875 36.03125 16.9375 
Q 35.015625 17.921875 31.453125 18.75 
Q 14.84375 22.40625 10.40625 25.4375 
Q 4.25 29.640625 4.25 37.109375 
Q 4.25 43.84375 9.5625 48.4375 
Q 14.890625 53.03125 26.078125 53.03125 
Q 36.71875 53.03125 41.890625 49.5625 
Q 47.078125 46.09375 49.03125 39.3125 
L 36.078125 36.921875 
Q 35.25 39.9375 32.921875 41.546875 
Q 30.609375 43.171875 26.3125 43.171875 
Q 20.90625 43.171875 18.5625 41.65625 
Q 17 40.578125 17 38.875 
Q 17 37.40625 18.359375 36.375 
Q 20.21875 35.015625 31.171875 32.515625 
Q 42.140625 30.03125 46.484375 26.421875 
Q 50.78125 22.75 50.78125 16.21875 
Q 50.78125 9.078125 44.828125 3.953125 
Q 38.875 -1.171875 27.203125 -1.171875 
Q 16.609375 -1.171875 10.421875 3.125 
Q 4.25 7.421875 2.34375 14.796875 
" id="Arial-BoldMT-73"/>
     <path d="M 6.15625 51.859375 
L 18.796875 51.859375 
L 18.796875 44.78125 
Q 25.59375 53.03125 34.96875 53.03125 
Q 39.9375 53.03125 43.59375 50.96875 
Q 47.265625 48.921875 49.609375 44.78125 
Q 53.03125 48.921875 56.984375 50.96875 
Q 60.9375 53.03125 65.4375 53.03125 
Q 71.140625 53.03125 75.09375 50.703125 
Q 79.046875 48.390625 81 43.890625 
Q 82.421875 40.578125 82.421875 33.15625 
L 82.421875 0 
L 68.703125 0 
L 68.703125 29.640625 
Q 68.703125 37.359375 67.28125 39.59375 
Q 65.375 42.53125 61.421875 42.53125 
Q 58.546875 42.53125 56 40.765625 
Q 53.46875 39.015625 52.34375 35.625 
Q 51.21875 32.234375 51.21875 24.90625 
L 51.21875 0 
L 37.5 0 
L 37.5 28.421875 
Q 37.5 35.984375 36.765625 38.171875 
Q 36.03125 40.375 34.484375 41.453125 
Q 32.953125 42.53125 30.328125 42.53125 
Q 27.15625 42.53125 24.609375 40.8125 
Q 22.078125 39.109375 20.96875 35.890625 
Q 19.875 32.671875 19.875 25.203125 
L 19.875 0 
L 6.15625 0 
z
" id="Arial-BoldMT-6d"/>
     <path d="M 3.375 -21.046875 
Q 7.421875 -12.359375 9.078125 -7.71875 
Q 10.75 -3.078125 12.15625 2.96875 
Q 13.578125 9.03125 14.25 14.46875 
Q 14.9375 19.921875 14.9375 25.640625 
Q 14.9375 37.25 12.453125 47.625 
Q 9.96875 58.015625 3.265625 72.796875 
L 12.59375 72.796875 
Q 19.96875 62.3125 24.046875 50.53125 
Q 28.125 38.765625 28.125 26.65625 
Q 28.125 16.453125 24.90625 4.78125 
Q 21.234375 -8.296875 12.84375 -21.046875 
z
" id="Arial-BoldMT-29"/>
    </defs>
    <g style="fill:#262626;" transform="translate(314.019038 43.2)scale(0.14 -0.14)">
     <use xlink:href="#Arial-BoldMT-41"/>
     <use x="72.216797" xlink:href="#Arial-BoldMT-70"/>
     <use x="133.300781" xlink:href="#Arial-BoldMT-70"/>
     <use x="194.384766" xlink:href="#Arial-BoldMT-6c"/>
     <use x="222.167969" xlink:href="#Arial-BoldMT-79"/>
     <use x="277.783203" xlink:href="#Arial-BoldMT-20"/>
     <use x="305.566406" xlink:href="#Arial-BoldMT-28"/>
     <use x="338.867188" xlink:href="#Arial-BoldMT-73"/>
     <use x="394.482422" xlink:href="#Arial-BoldMT-75"/>
     <use x="455.566406" xlink:href="#Arial-BoldMT-6d"/>
     <use x="544.482422" xlink:href="#Arial-BoldMT-29"/>
    </g>
   </g>
   <g id="text_56">
    <!-- Combine -->
    <defs>
     <path d="M 53.078125 26.3125 
L 67.09375 21.875 
Q 63.875 10.15625 56.375 4.46875 
Q 48.875 -1.21875 37.359375 -1.21875 
Q 23.09375 -1.21875 13.90625 8.515625 
Q 4.734375 18.265625 4.734375 35.15625 
Q 4.734375 53.03125 13.953125 62.90625 
Q 23.1875 72.796875 38.234375 72.796875 
Q 51.375 72.796875 59.578125 65.046875 
Q 64.453125 60.453125 66.890625 51.859375 
L 52.59375 48.4375 
Q 51.3125 54 47.28125 57.21875 
Q 43.265625 60.453125 37.5 60.453125 
Q 29.546875 60.453125 24.578125 54.734375 
Q 19.625 49.03125 19.625 36.234375 
Q 19.625 22.65625 24.5 16.890625 
Q 29.390625 11.140625 37.203125 11.140625 
Q 42.96875 11.140625 47.109375 14.796875 
Q 51.265625 18.453125 53.078125 26.3125 
" id="Arial-BoldMT-43"/>
     <path d="M 4 26.65625 
Q 4 33.5 7.375 39.890625 
Q 10.75 46.296875 16.921875 49.65625 
Q 23.09375 53.03125 30.71875 53.03125 
Q 42.484375 53.03125 50 45.390625 
Q 57.515625 37.75 57.515625 26.078125 
Q 57.515625 14.3125 49.921875 6.5625 
Q 42.328125 -1.171875 30.8125 -1.171875 
Q 23.6875 -1.171875 17.21875 2.046875 
Q 10.75 5.28125 7.375 11.5 
Q 4 17.71875 4 26.65625 
M 18.0625 25.921875 
Q 18.0625 18.21875 21.71875 14.109375 
Q 25.390625 10.015625 30.765625 10.015625 
Q 36.140625 10.015625 39.765625 14.109375 
Q 43.40625 18.21875 43.40625 26.03125 
Q 43.40625 33.640625 39.765625 37.734375 
Q 36.140625 41.84375 30.765625 41.84375 
Q 25.390625 41.84375 21.71875 37.734375 
Q 18.0625 33.640625 18.0625 25.921875 
" id="Arial-BoldMT-6f"/>
     <path d="M 6.59375 0 
L 6.59375 71.578125 
L 20.3125 71.578125 
L 20.3125 45.796875 
Q 26.65625 53.03125 35.359375 53.03125 
Q 44.828125 53.03125 51.03125 46.171875 
Q 57.234375 39.3125 57.234375 26.46875 
Q 57.234375 13.1875 50.90625 6 
Q 44.578125 -1.171875 35.546875 -1.171875 
Q 31.109375 -1.171875 26.78125 1.046875 
Q 22.46875 3.265625 19.34375 7.625 
L 19.34375 0 
z
M 20.21875 27.046875 
Q 20.21875 19 22.75 15.140625 
Q 26.3125 9.671875 32.234375 9.671875 
Q 36.765625 9.671875 39.96875 13.546875 
Q 43.171875 17.4375 43.171875 25.78125 
Q 43.171875 34.671875 39.9375 38.59375 
Q 36.71875 42.53125 31.6875 42.53125 
Q 26.765625 42.53125 23.484375 38.6875 
Q 20.21875 34.859375 20.21875 27.046875 
" id="Arial-BoldMT-62"/>
     <path d="M 37.203125 16.5 
L 50.875 14.203125 
Q 48.25 6.6875 42.546875 2.75 
Q 36.859375 -1.171875 28.328125 -1.171875 
Q 14.796875 -1.171875 8.296875 7.671875 
Q 3.171875 14.75 3.171875 25.53125 
Q 3.171875 38.421875 9.90625 45.71875 
Q 16.65625 53.03125 26.953125 53.03125 
Q 38.53125 53.03125 45.21875 45.390625 
Q 51.90625 37.75 51.609375 21.96875 
L 17.234375 21.96875 
Q 17.390625 15.875 20.5625 12.46875 
Q 23.734375 9.078125 28.46875 9.078125 
Q 31.6875 9.078125 33.875 10.828125 
Q 36.078125 12.59375 37.203125 16.5 
M 37.984375 30.375 
Q 37.84375 36.328125 34.90625 39.421875 
Q 31.984375 42.53125 27.78125 42.53125 
Q 23.296875 42.53125 20.359375 39.265625 
Q 17.4375 35.984375 17.484375 30.375 
z
" id="Arial-BoldMT-65"/>
    </defs>
    <g style="fill:#262626;" transform="translate(457.441022 142.892308)scale(0.14 -0.14)">
     <use xlink:href="#Arial-BoldMT-43"/>
     <use x="72.216797" xlink:href="#Arial-BoldMT-6f"/>
     <use x="133.300781" xlink:href="#Arial-BoldMT-6d"/>
     <use x="222.216797" xlink:href="#Arial-BoldMT-62"/>
     <use x="283.300781" xlink:href="#Arial-BoldMT-69"/>
     <use x="311.083984" xlink:href="#Arial-BoldMT-6e"/>
     <use x="372.167969" xlink:href="#Arial-BoldMT-65"/>
    </g>
   </g>
   <g id="patch_2">
    <path d="M 134.738462 145.915385 
Q 151.075977 124.132031 167.413492 102.348678 
L 165.413492 100.848678 
Q 170.214438 96.947416 175.015385 93.046154 
Q 172.614438 98.747416 170.213492 104.448678 
L 168.213492 102.948678 
Q 151.875977 124.732031 135.538462 146.515385 
L 134.738462 145.915385 
z
" style="stroke:#000000;stroke-linecap:round;stroke-width:0.3;"/>
   </g>
   <g id="patch_3">
    <path d="M 135.138462 215.5 
Q 149.077374 215.5 163.016286 215.5 
L 163.016286 213 
Q 169.015835 214.5 175.015385 216 
Q 169.015835 217.5 163.016286 219 
L 163.016286 216.5 
Q 149.077374 216.5 135.138462 216.5 
L 135.138462 215.5 
z
" style="stroke:#000000;stroke-linecap:round;stroke-width:0.3;"/>
   </g>
   <g id="patch_4">
    <path d="M 135.538462 285.484615 
Q 151.875977 307.267969 168.213492 329.051322 
L 170.213492 327.551322 
Q 172.614438 333.252584 175.015385 338.953846 
Q 170.214438 335.052584 165.413492 331.151322 
L 167.413492 329.651322 
Q 151.075977 307.867969 134.738462 286.084615 
L 135.538462 285.484615 
z
" style="stroke:#000000;stroke-linecap:round;stroke-width:0.3;"/>
   </g>
   <g id="patch_5">
    <path d="M 268.061538 79.253846 
Q 282.000451 79.253846 295.939363 79.253846 
L 295.939363 76.753846 
Q 301.938912 78.253846 307.938462 79.753846 
Q 301.938912 81.253846 295.939363 82.753846 
L 295.939363 80.253846 
Q 282.000451 80.253846 268.061538 80.253846 
L 268.061538 79.253846 
z
" style="stroke:#000000;stroke-linecap:round;stroke-width:0.3;"/>
   </g>
   <g id="patch_6">
    <path d="M 268.061538 215.5 
Q 282.000451 215.5 295.939363 215.5 
L 295.939363 213 
Q 301.938912 214.5 307.938462 216 
Q 301.938912 217.5 295.939363 219 
L 295.939363 216.5 
Q 282.000451 216.5 268.061538 216.5 
L 268.061538 215.5 
z
" style="stroke:#000000;stroke-linecap:round;stroke-width:0.3;"/>
   </g>
   <g id="patch_7">
    <path d="M 268.061538 351.746154 
Q 282.000451 351.746154 295.939363 351.746154 
L 295.939363 349.246154 
Q 301.938912 350.746154 307.938462 352.246154 
Q 301.938912 353.746154 295.939363 355.246154 
L 295.939363 352.746154 
Q 282.000451 352.746154 268.061538 352.746154 
L 268.061538 351.746154 
z
" style="stroke:#000000;stroke-linecap:round;stroke-width:0.3;"/>
   </g>
   <g id="patch_8">
    <path d="M 401.384615 92.746154 
Q 417.72213 114.529507 434.059645 136.312861 
L 436.059645 134.812861 
Q 438.460592 140.514123 440.861538 146.215385 
Q 436.060592 142.314123 431.259645 138.412861 
L 433.259645 136.912861 
Q 416.92213 115.129507 400.584615 93.346154 
L 401.384615 92.746154 
z
" style="stroke:#000000;stroke-linecap:round;stroke-width:0.3;"/>
   </g>
   <g id="patch_9">
    <path d="M 400.984615 215.5 
Q 414.923528 215.5 428.86244 215.5 
L 428.86244 213 
Q 434.861989 214.5 440.861538 216 
Q 434.861989 217.5 428.86244 219 
L 428.86244 216.5 
Q 414.923528 216.5 400.984615 216.5 
L 400.984615 215.5 
z
" style="stroke:#000000;stroke-linecap:round;stroke-width:0.3;"/>
   </g>
   <g id="patch_10">
    <path d="M 400.584615 338.653846 
Q 416.92213 316.870493 433.259645 295.087139 
L 431.259645 293.587139 
Q 436.060592 289.685877 440.861538 285.784615 
Q 438.460592 291.485877 436.059645 297.187139 
L 434.059645 295.687139 
Q 417.72213 317.470493 401.384615 339.253846 
L 400.584615 338.653846 
z
" style="stroke:#000000;stroke-linecap:round;stroke-width:0.3;"/>
   </g>
  </g>
 </g>
 <defs>
  <clipPath id="p8c8d7628e3">
   <rect height="432" width="576" x="0" y="0"/>
  </clipPath>
 </defs>
</svg>
